<svg width="24" height="24" viewBox="0 0 24 24" fill="none" xmlns="http://www.w3.org/2000/svg">
<path d="M11.547 3.55877C11.547 3.55877 11.8479 2.09952 12.1689 2.01427C12.4915 1.92903 13.8972 2.23324 14.5876 2.59931C15.552 3.10913 16.1471 3.95994 16.2892 4.99629C16.4396 6.10619 16.01 7.03556 16.01 7.03556C16.01 7.03556 17.018 6.43548 18.2198 6.54246C19.4216 6.64943 20.3226 7.22946 20.6669 7.65904C21.0096 8.08862 21.4826 8.56 21.4175 8.77562C21.3523 8.98958 20.1086 9.7635 20.1722 9.95573C20.2374 10.1496 21.6966 10.041 21.8454 10.2984C21.9958 10.5558 22.2967 12.209 21.2018 13.3891C20.107 14.5692 19.0338 14.7413 19.0338 14.7413C19.0338 14.7413 20.117 15.7593 20.1738 17.15C20.2206 18.2883 19.9147 18.9686 19.2929 19.206C18.6711 19.4417 17.5111 18.6912 17.5111 18.6912C17.5111 18.6912 18.519 20.4931 18.0694 20.7722C17.6181 21.0514 17.3957 20.5532 17.2102 20.6C17.0581 20.6385 17.3172 21.0079 16.9745 21.3305C16.6319 21.6531 15.1509 21.8671 13.8421 21.1583C12.5333 20.4496 12.1254 19.3347 12.1254 19.3347C12.1254 19.3347 11.7727 20.6886 10.163 21.3756C8.55333 22.0626 7.38159 21.2219 7.16763 21.0932C6.95368 20.9644 7.03893 19.9348 7.08239 19.7626C7.12585 19.5904 7.31807 19.1826 7.18936 19.0973C7.06066 19.0121 6.63107 19.6122 6.3302 19.8061C6.02932 20 5.6432 20.2139 5.25707 19.8913C4.87095 19.5687 3.94826 18.4956 4.18395 17.0581C4.41963 15.6206 5.23534 14.8048 5.23534 14.8048C5.23534 14.8048 3.51868 14.6544 2.68124 13.1952C1.8438 11.7359 1.95412 10.2767 2.10456 10.0828C2.255 9.88887 3.54208 9.86881 3.54208 9.86881C3.54208 9.86881 2.31852 9.16008 2.44722 8.60346C2.57593 8.04516 3.19774 8.47475 3.36991 8.30258C3.54208 8.13041 2.93197 7.47852 3.41337 7.13752C3.77442 6.88178 4.4096 6.40539 5.62314 6.30677C6.90186 6.20146 7.79111 6.84333 7.79111 6.84333C7.79111 6.84333 7.24452 5.91897 7.47018 4.86925C7.64903 4.0385 8.26416 3.32476 8.84251 2.9169C9.42086 2.50905 10.1948 2.18644 10.5374 2.18644C10.8801 2.18644 11.547 3.55877 11.547 3.55877Z" fill="#F1B8F5"/>
<path d="M14.6009 8.8724C14.8316 9.13817 15.318 8.77545 15.6373 8.23387C15.8813 7.821 16.1605 7.11562 16.0619 7.0287C15.9632 6.94178 15.2027 7.5335 14.9453 7.82602C14.6895 8.12021 14.4187 8.66178 14.6009 8.8724ZM15.8947 14.0475C15.8329 14.4419 16.8157 14.7211 17.3389 14.7829C17.8354 14.8414 19.0322 14.9083 19.0355 14.7395C19.0405 14.5707 18.0911 13.9137 17.3389 13.7549C16.6787 13.6162 15.9482 13.7115 15.8947 14.0475ZM12.1906 16.5648C11.8546 16.5447 11.7292 17.327 11.7911 17.9288C11.8529 18.5305 11.9817 19.3161 12.1254 19.3312C12.2692 19.3462 12.5182 18.477 12.5801 17.663C12.6185 17.1515 12.4915 16.5832 12.1906 16.5648ZM5.23701 14.8047C5.26042 14.9167 6.42046 14.9167 7.0406 14.7395C7.66074 14.5623 8.0502 14.1996 7.98 13.9338C7.9098 13.668 7.13086 13.7432 6.69459 13.9071C6.12794 14.1193 5.21528 14.6943 5.23701 14.8047ZM7.85631 6.905C7.72426 7.00195 8.14882 7.8093 8.43299 8.15531C8.71715 8.50132 9.1601 8.88243 9.38074 8.78381C9.60306 8.68686 9.39913 7.98648 8.91104 7.51678C8.67536 7.28945 7.99003 6.80805 7.85631 6.905Z" fill="#F8D3FB"/>
<path d="M14.387 8.80908C14.0828 8.65196 13.1284 9.93904 12.0151 9.89391C10.9019 9.84878 9.75521 8.66867 9.55296 8.8492C9.3507 9.02973 10.1631 10.3335 9.7385 11.6072C9.3507 12.7723 7.99007 13.5479 8.13717 13.8354C8.27423 14.1045 9.59307 13.5462 10.6896 14.0995C11.9683 14.7464 11.7243 16.3978 12.1739 16.4095C12.6236 16.4212 12.4247 14.9687 13.5345 14.2683C14.6027 13.593 15.7426 14.1179 15.8396 13.7735C15.9516 13.369 14.5024 12.8692 14.1998 11.4869C13.8471 9.89056 14.703 8.97122 14.387 8.80908Z" fill="#D89ADD"/>
<path d="M11.2663 10.9555C11.0373 11.0324 10.4439 12.3914 10.5375 12.5585C10.6311 12.7257 11.8497 13.7771 12.1723 13.7771C12.4949 13.7771 13.5563 12.7574 13.5663 12.6003C13.5764 12.4449 13.0465 11.0592 12.8693 10.9555C12.6921 10.8519 11.4853 10.882 11.2663 10.9555Z" fill="#9C6C9F"/>
<path d="M12.7824 10.1611C12.52 10.4051 12.4949 10.8732 12.8125 11.1356C13.1518 11.4147 13.6131 11.3094 13.8087 11.037C13.9809 10.7996 13.9976 10.4336 13.7101 10.1761C13.5329 10.0173 13.115 9.85186 12.7824 10.1611ZM13.1969 12.7737C13.1518 13.2116 13.5212 13.5443 13.8906 13.5359C14.3737 13.5259 14.5525 13.123 14.5475 12.8489C14.5392 12.4795 14.2834 12.1619 13.8756 12.177C13.4677 12.192 13.2354 12.4043 13.1969 12.7737ZM12.1556 13.5576C11.8313 13.566 11.492 13.7833 11.4987 14.2597C11.5053 14.6976 11.8463 14.8932 12.1857 14.8932C12.525 14.8932 12.8041 14.6508 12.8041 14.2363C12.8041 13.8217 12.5032 13.5493 12.1556 13.5576ZM10.0879 12.1469C9.60481 12.1469 9.40088 12.4795 9.40088 12.8573C9.40088 13.235 9.68002 13.5092 10.1263 13.4908C10.5108 13.4757 10.7498 13.1498 10.7147 12.7887C10.6763 12.3959 10.4957 12.1469 10.0879 12.1469ZM10.4188 10.0708C10.1414 10.3399 10.1313 10.803 10.4272 11.0453C10.6579 11.2359 11.0691 11.3027 11.3399 11.0219C11.6123 10.7428 11.5655 10.3433 11.3248 10.1093C11.0841 9.87359 10.6913 9.80673 10.4188 10.0708Z" fill="#9C6C9F"/>
</svg>
