<svg width="24" height="24" viewBox="0 0 24 24" fill="none" xmlns="http://www.w3.org/2000/svg">
<path d="M5.80872 4.68751C5.75622 4.66126 6.1256 4.20001 6.25685 3.97501C6.3881 3.75001 6.49497 3.39376 6.77247 3.42001C7.04997 3.44626 7.07622 3.93564 7.0631 4.14564C7.03685 4.56751 6.79872 5.04376 6.79872 5.04376L5.80872 4.68751Z" fill="#FFBD16"/>
<path d="M16.9087 13.86L9.0506 15.3075C9.0506 15.3075 9.13497 15.8137 9.27935 16.3819C9.42372 16.95 9.9656 18.5719 9.93935 19.245C9.9131 19.9181 9.39747 21.2775 9.5831 21.5681C9.76872 21.8587 10.4418 21.8456 10.8375 21.7537C11.2331 21.6619 11.6475 21.375 11.7 21.2044C11.7525 21.0337 11.6287 19.5112 11.6418 19.155C11.655 18.7987 11.7337 18.1125 11.8668 17.5837C11.9981 17.055 12.0787 16.0931 12.0787 16.0931L13.9931 15.1162C13.9931 15.1162 15.3262 16.1325 15.6956 16.6744C16.065 17.2162 16.3425 18.3769 16.3293 18.8512C16.3162 19.3256 16.0031 20.6869 16.2056 20.9325C16.4568 21.2362 17.0606 21.2756 17.4543 21.24C17.9381 21.1969 18.36 20.9325 18.36 20.9325V15.2456L16.9087 13.86Z" fill="#ADADB8"/>
<path d="M21.9506 15.2981C21.6338 15.285 21.345 16.4231 21.435 16.9219C21.5663 17.6475 22.095 17.8987 22.2656 18.1369C22.4381 18.375 22.5375 18.6694 22.74 18.7575C22.9519 18.8494 23.1975 17.835 23.175 17.055C23.1506 16.0894 22.3781 15.3169 21.9506 15.2981Z" fill="#4D4D4D"/>
<path d="M15.8006 15.3506L14.7844 16.3013C14.7844 16.3013 15.2512 16.8263 15.6281 17.0925C16.0762 17.4094 16.5 17.4619 16.5 17.4619C16.5 17.4619 16.4081 18.2137 16.8562 18.2794C17.2744 18.3412 17.2387 17.5144 17.3044 17.5012C17.37 17.4881 17.5031 18.1088 17.8594 18.0956C18.2156 18.0825 18.8756 16.6969 18.8756 16.6969L18.0562 14.625L15.8006 15.3506Z" fill="#FCA4A7"/>
<path d="M8.28186 5.4525C8.30811 5.38687 8.01749 5.13562 7.73999 4.95187C7.46249 4.76625 6.92249 4.70062 6.92249 4.70062L4.50749 5.87437L3.04311 7.29187C3.04311 7.29187 2.42811 7.72312 2.16374 7.90687C1.89936 8.0925 1.46436 8.38687 1.23936 8.53125C1.01436 8.67562 0.830614 8.75625 0.791239 8.92687C0.751864 9.0975 1.60499 10.4794 1.60499 10.4794L2.05311 10.8094L3.12186 10.7175C3.12186 10.7175 4.54686 11.3775 5.20686 11.6156C5.86686 11.8537 7.37061 12.3412 7.37061 12.3412C7.37061 12.3412 7.64811 13.0931 7.83186 13.515C8.01749 13.9369 8.39061 14.5219 8.39061 14.5219L12.2662 16.3912C12.2662 16.3912 12.6356 17.8556 12.7012 18.2381C12.7669 18.6206 12.8456 19.6894 12.8194 20.205C12.7931 20.7206 12.6844 21.5681 12.7012 21.7894C12.7181 22.035 12.9412 22.3425 13.2694 22.3969C13.8112 22.485 14.4581 22.2919 14.7337 21.9094C15.0094 21.5269 14.6681 20.4712 14.6287 20.0344C14.5894 19.5994 14.4019 18.6037 14.5369 18.2794C14.7619 17.7375 14.985 17.0512 15.0244 16.815C15.0637 16.5769 15.1556 16.1944 15.1556 16.1944C15.1556 16.1944 15.8681 16.2075 16.4494 16.1287C17.0306 16.05 17.61 15.93 17.61 15.93C17.61 15.93 17.7956 16.7081 17.8219 17.1844C17.8481 17.6587 17.94 18.5962 17.9269 19.335C17.9137 20.0737 17.6625 20.9719 17.7412 21.1556C17.82 21.3412 17.9794 21.6656 18.7181 21.5644C19.5 21.4575 19.6856 21.0487 19.7644 20.865C19.8431 20.6812 19.9444 19.0444 20.0512 18.6206C20.1562 18.1987 20.4994 16.5356 20.685 15.9675C20.8706 15.3994 21.5569 13.275 21.5569 13.275C21.5569 13.275 21.5569 14.16 21.6094 14.5162C21.6619 14.8725 21.7669 15.6375 21.9787 15.6112C22.1906 15.585 22.1231 14.9512 22.1362 14.5294C22.1494 14.1075 22.1231 13.5131 22.2806 13.0125C22.4381 12.5119 22.5862 11.7187 22.5975 11.6269C22.695 10.8787 22.5844 10.0031 22.5712 9.85875C22.5581 9.71437 21.5025 9.02812 21.5025 9.02812C21.5025 9.02812 21.5287 8.47875 21.4631 8.39812C21.3975 8.31937 20.4337 7.58812 20.1337 7.52625C19.6331 7.42312 19.1269 7.60125 19.1269 7.60125L16.3312 9.675L11.2369 7.59C11.2369 7.59 10.7362 7.57687 10.5769 7.57687C10.4194 7.57687 9.66561 7.26 9.66561 7.26L8.79374 6.45562L8.28186 5.4525Z" fill="#DFDFDF"/>
<path d="M20.0888 11.4056C19.98 10.4213 20.3925 9.50438 20.6438 9.10875C20.895 8.71313 21.1763 8.3475 21.2456 8.2425C21.3113 8.145 22.6013 9.28875 22.5656 9.82688C22.56 9.92063 22.3894 11.0419 22.2131 11.5594C22.0706 11.9813 21.7163 13.0238 21.5981 13.0631C21.48 13.1025 20.2219 12.5925 20.0888 11.4056ZM20.0494 12.7106C19.6969 12.7013 19.4288 13.0538 19.1119 13.41C18.795 13.7662 18.5438 14.0438 18.5963 14.4C18.6488 14.7563 19.0444 15.3375 19.77 15.2587C20.4956 15.18 20.6944 14.4413 20.7075 13.9913C20.7225 13.5431 20.5781 12.7238 20.0494 12.7106ZM15.3431 7.52813C13.5356 7.55438 11.4056 7.545 11.1806 7.59938C11.0494 7.62938 11.5106 9.21375 12.2888 10.0331C13.0669 10.8525 15.4894 13.7719 17.2781 13.0031C18.5063 12.4744 18.2681 10.7456 18.4669 9.84938C18.6656 8.95125 19.5675 7.54875 19.5675 7.54875C19.5675 7.54875 16.8075 7.5075 15.3431 7.52813ZM11.3119 4.76625C11.4694 4.98188 10.6256 6.20438 10.3481 6.52125C10.0706 6.83813 9.51751 7.2075 9.51751 7.2075C9.51751 7.2075 9.98439 7.38375 10.0631 7.44938C10.1419 7.515 10.7794 8.685 10.785 9.015C10.7944 9.58688 9.57001 11.0475 9.00376 11.0344C8.43564 11.0213 7.06314 10.11 6.87939 9.86063C6.69376 9.60938 6.45751 7.41938 6.73501 6.70688C7.01251 5.99438 7.55251 5.43938 7.71189 5.41313C7.87126 5.38688 8.06814 5.43938 8.06814 5.43938C8.06814 5.43938 8.70189 4.97813 9.65251 4.80563C10.6031 4.63313 11.2069 4.62188 11.3119 4.76625Z" fill="#4D4D4D"/>
<path d="M8.43564 6.90374C8.34377 6.79874 8.56877 6.04312 9.18752 5.59687C9.84752 5.12249 10.5469 5.13562 10.665 5.22749C10.7963 5.32874 10.3931 6.07499 9.88689 6.45562C9.25314 6.92999 8.52752 7.01062 8.43564 6.90374Z" fill="#FFD1B3"/>
<path d="M3.07687 8.39626C3.07687 8.39626 3.86812 6.81188 4.48874 6.36376C5.10937 5.91563 5.75062 5.74876 6.29624 5.55938C7.12687 5.26876 7.44374 4.64813 7.44374 4.64813C7.44374 4.64813 6.33562 4.39688 5.41124 4.67438C4.73062 4.87876 4.03874 5.32126 3.74812 5.67751C3.45749 6.03376 3.26812 6.67501 3.06187 7.01063C2.81062 7.41938 2.20874 7.86938 2.20874 7.86938C2.20874 7.86938 2.41499 7.91251 2.65687 8.07188C2.75999 8.13751 3.07687 8.39626 3.07687 8.39626Z" fill="#4D4D4D"/>
<path d="M7.03689 4.95189C7.06689 5.05876 7.15127 5.29314 7.34064 5.42626C7.56377 5.58564 7.91064 5.63064 8.13189 5.54439C8.54064 5.38689 8.68127 4.47564 8.71314 4.19814C8.76564 3.72376 8.68689 3.32626 8.43564 3.36751C8.26502 3.39376 7.76252 4.02189 7.61814 4.13251C7.39314 4.30501 6.93002 4.56751 7.03689 4.95189Z" fill="#FFBD16"/>
<path d="M4.96878 7.11564C5.06628 7.07251 5.2069 6.76314 5.48815 6.78939C5.7694 6.81564 5.99065 7.14564 5.90253 7.51876C5.8144 7.88814 5.58378 8.00064 5.33065 7.95001C5.11128 7.90689 5.0044 7.65939 4.96128 7.62376C4.91815 7.58814 4.47753 7.54501 4.4869 7.35939C4.4944 7.17751 4.96878 7.11564 4.96878 7.11564Z" fill="#4D4D4D"/>
<path d="M1.37062 10.4231C1.29187 10.5206 1.45125 10.8319 1.7925 10.9519C2.21062 11.0962 2.49187 11.0887 2.79937 11.01C3.04687 10.9462 3.27937 10.7944 3.27937 10.7944C3.27937 10.7944 3.77437 10.605 3.55687 10.35C3.25687 9.99749 2.88375 10.5562 2.88375 10.5562C2.88375 10.5562 2.6325 10.71 2.175 10.6481C1.81875 10.5994 1.58062 10.2825 1.58062 10.2825L1.37062 10.4231Z" fill="#4D4D4D"/>
<path d="M2.43378 9.41249C2.4694 9.23061 2.52565 9.10124 2.03815 8.95499C1.53753 8.80499 1.06128 8.72624 0.858776 8.82374C0.755651 8.87249 0.630026 9.40499 0.911276 9.94124C1.07065 10.245 1.37815 10.7681 1.52628 10.7062C1.6744 10.6444 1.9444 10.1906 2.0269 10.0819C2.14503 9.93186 2.37378 9.71999 2.43378 9.41249Z" fill="#D9D9D9"/>
<path d="M2.12628 9.32437C2.11878 9.57937 1.73065 9.84374 1.27315 9.71062C0.815654 9.57749 0.736904 9.24374 0.763154 9.05062C0.789404 8.85749 1.1419 9.04124 1.37065 9.08624C1.5994 9.13124 2.13565 9.05062 2.12628 9.32437Z" fill="#EDB6CA"/>
<path d="M13.1606 13.0369C12.7481 13.1306 12.3506 13.8375 12.3956 14.4263C12.435 14.9456 12.8662 15.585 13.5562 15.6581C14.2162 15.7294 14.7 15.1219 14.6831 14.5763C14.67 14.1713 14.2219 13.9538 13.9706 13.6519C13.5656 13.1681 13.4325 12.975 13.1606 13.0369ZM8.54999 12.9319C8.33812 13.02 8.26874 13.38 8.23312 13.6013C8.19749 13.8225 8.23312 14.2444 8.33812 14.4638C8.44312 14.6831 9.03374 15.6337 9.20062 15.7669C9.36749 15.8981 10.125 16.2244 10.9781 16.3481C11.8312 16.4719 12.2812 16.4269 12.2812 16.4269C12.2812 16.4269 12.0431 15.9431 11.8594 15.495C11.6737 15.0469 11.4112 14.28 11.0587 13.8675C10.7062 13.455 8.93249 12.7725 8.54999 12.9319Z" fill="#4D4D4D"/>
</svg>
