<svg width="24" height="24" viewBox="0 0 24 24" fill="none" xmlns="http://www.w3.org/2000/svg">
<path d="M13.9818 12.7085C13.4113 8.99583 12.8394 6.4243 11.9768 5.28184C11.1197 4.99656 8.60013 4.59663 7.6803 5.28184C6.7658 5.96705 6.62849 8.99583 6.53784 10.4236L9.97188 11.566L12.5474 14.7081H13.4046C13.6899 14.6121 14.2044 14.0802 13.9765 12.7085H13.9818Z" fill="#E2FAFF"/>
<path d="M11.8742 9.66904L12.7314 10.5262L12.9367 10.3209L12.0795 9.46375L11.8742 9.66904Z" fill="#9A9A9A"/>
<path d="M12.6447 8.89181C12.6172 8.86646 12.5808 8.85296 12.5434 8.85421C12.506 8.85545 12.4705 8.87135 12.4448 8.89848L11.3023 10.1556C11.2754 10.183 11.2604 10.2198 11.2604 10.2582C11.2604 10.2966 11.2754 10.3335 11.3023 10.3609C11.3317 10.3853 11.3692 10.3976 11.4073 10.3954C11.4454 10.3931 11.4813 10.3765 11.5076 10.3489L12.65 9.09177C12.6639 9.07889 12.6749 9.0632 12.6822 9.04576C12.6895 9.02831 12.693 9.0095 12.6925 8.99059C12.692 8.97167 12.6875 8.95308 12.6793 8.93605C12.671 8.91902 12.6592 8.90394 12.6447 8.89181Z" fill="#9A9A9A"/>
<path d="M16.2734 5.85242V7.46945L15.8668 7.87605C15.7596 7.98177 15.6983 8.12543 15.6962 8.27597V9.28112H14.5537V7.68142C14.5538 7.64486 14.5615 7.60872 14.5761 7.57523C14.5908 7.54175 14.6122 7.51164 14.639 7.48679L16.2734 5.85242Z" fill="#D9D9D9"/>
<path d="M5.96063 10.4235C5.96063 9.01179 6.54853 6.53891 6.83514 5.49243L7.38304 5.64707C7.09776 6.69221 6.53786 9.09844 6.53786 10.4235H5.96063ZM8.58149 7.96665C8.75879 6.97883 8.97608 6.02433 9.12405 5.49243L9.67329 5.64707C9.466 6.4476 9.28857 7.25557 9.14138 8.06929C8.96719 8.94113 8.86232 9.82097 8.82678 10.7088H8.25621C8.25621 9.99561 8.39885 8.94913 8.58149 7.96665ZM12.9807 6.91617C12.8907 6.60033 12.7622 6.29676 12.5981 6.01234L13.0727 5.69906C13.238 5.94435 13.3926 6.32161 13.5299 6.73887C13.6766 7.2099 13.8001 7.68759 13.9005 8.17194C14.1178 9.18909 14.2658 10.2862 14.2658 10.9954H13.6952C13.6952 10.3382 13.5526 9.29174 13.3406 8.29192C13.243 7.82779 13.1228 7.36866 12.9807 6.91617Z" fill="#5B5B5B"/>
<path d="M5.96063 4.13939C11.005 3.68214 13.6966 4.42467 13.9818 5.28184L13.4113 6.4243C12.0342 5.73909 8.63481 5.76176 7.10842 5.85241L6.43521 5.40716C6.31493 5.32725 6.22923 5.2049 6.19526 5.06455L5.96596 4.13939H5.96063Z" fill="#FAB059"/>
<path d="M6.22856 5.22454L6.10858 4.70996C7.1084 4.42468 10.3371 4.51 10.5424 4.70996C11.1143 5.28186 11.1143 5.90974 11.1143 5.90974C9.7821 5.79499 8.44337 5.77583 7.1084 5.85242H6.53784L6.27522 5.33918C6.25757 5.30261 6.24415 5.26415 6.23522 5.22454H6.22856Z" fill="#5B5B5B"/>
<path d="M13.4046 9.56635C14.9363 9.46904 18.3291 9.50903 19.7061 10.4235C20.5527 10.9834 21.1179 11.6806 21.4205 12.1379C21.4205 12.1379 21.5525 12.8351 20.9979 13.2803L20.278 13.8509H16.844L16.1588 12.9377C16.1055 12.8667 16.0365 12.809 15.9572 12.7693C15.8778 12.7295 15.7903 12.7087 15.7015 12.7084H13.6446C13.5694 12.7115 13.4946 12.6977 13.4254 12.6682C13.3562 12.6387 13.2945 12.5942 13.2447 12.5378C12.939 12.1349 12.6623 11.7108 12.4168 11.2687C12.3691 11.1861 12.3444 11.0921 12.3453 10.9967C12.3462 10.9013 12.3728 10.8078 12.4221 10.7261C12.6741 10.3155 13.154 9.58368 13.4046 9.56635Z" fill="#FAB059"/>
<path d="M15.1243 16.1372C16.2667 16.0399 18.9063 15.6226 20.278 14.7081C20.6899 14.4628 20.9352 14.1376 21.1352 13.851C21.7057 12.9951 21.6324 12.4112 21.4205 12.1379C20.278 12.1379 19.8034 12.8978 19.7061 13.2804L16.844 13.5657L16.1534 12.8805C16.0479 12.7728 15.9042 12.711 15.7535 12.7085H13.9805C13.9805 12.7085 13.6952 14.4229 13.4099 14.4229H11.9755L10.8331 11.8527L7.67898 10.4236L4.81683 10.7089L2.8172 12.1379L11.1184 16.1372H15.1243Z" fill="#5B5B5B"/>
<path d="M21.1405 13.8523C21.7124 12.9951 21.6324 12.4126 21.4258 12.1379C20.9232 12.1379 20.5459 12.2859 20.2833 12.4805C20.2833 12.9951 20.6952 13.6057 21.1405 13.8523Z" fill="#F3F3F3"/>
<path d="M7.01244 10.7089C8.22734 10.6871 9.4073 11.1158 10.3249 11.9124C11.2425 12.7089 11.8329 13.8168 11.9822 15.0227C11.9959 15.0925 12.0351 15.1547 12.0922 15.197C12.1493 15.2394 12.2202 15.2589 12.2909 15.2517C12.3617 15.2445 12.4272 15.2112 12.4746 15.1583C12.5221 15.1053 12.548 15.0365 12.5474 14.9654C12.2621 12.2459 9.88524 10.1383 7.01244 10.1383C6.07631 10.1322 5.15354 10.3604 4.32814 10.8021C3.50274 11.2438 2.80094 11.885 2.28663 12.6672C2.25339 12.7306 2.24507 12.8041 2.26331 12.8733C2.28155 12.9425 2.32503 13.0024 2.3852 13.0412C2.44537 13.08 2.51787 13.0948 2.58844 13.0829C2.65901 13.0709 2.72255 13.0329 2.76654 12.9765C3.22877 12.274 3.85941 11.6985 4.60102 11.3022C5.34262 10.9059 6.17161 10.7014 7.01244 10.7075" fill="#FAB059"/>
<path d="M18.8503 13.2803C18.8499 13.2046 18.8196 13.132 18.7659 13.0785C18.7121 13.0251 18.6394 12.9951 18.5637 12.9951C17.5311 12.9929 16.5323 13.363 15.7505 14.0376C14.9687 14.7122 14.4562 15.646 14.3071 16.6677C14.3019 16.7053 14.304 16.7435 14.3136 16.7802C14.3231 16.8169 14.3397 16.8514 14.3626 16.8816C14.3854 16.9119 14.414 16.9374 14.4467 16.9566C14.4794 16.9758 14.5155 16.9884 14.5531 16.9937C14.5906 16.9989 14.6288 16.9967 14.6655 16.9872C14.7022 16.9777 14.7367 16.961 14.767 16.9382C14.7972 16.9154 14.8227 16.8868 14.8419 16.8541C14.8612 16.8214 14.8737 16.7853 14.879 16.7477C15.0081 15.863 15.4517 15.0544 16.1283 14.47C16.805 13.8857 17.6696 13.5646 18.5637 13.5656C18.6393 13.5656 18.7119 13.5356 18.7654 13.4821C18.8189 13.4286 18.8489 13.356 18.8489 13.2803" fill="#D9D9D9"/>
<path d="M13.9992 15.1427C13.9992 15.067 13.9691 14.9945 13.9156 14.941C13.8621 14.8875 13.7895 14.8574 13.7139 14.8574H12.3141V15.428H13.7192C13.7938 15.4263 13.8648 15.3955 13.9171 15.3422C13.9694 15.2889 13.9988 15.2174 13.9992 15.1427ZM12.0342 15.1427C12.0342 15.3027 12.1595 15.428 12.3141 15.428V14.8574C12.2766 14.8572 12.2393 14.8645 12.2046 14.8788C12.1698 14.893 12.1382 14.914 12.1116 14.9405C12.0849 14.967 12.0638 14.9985 12.0494 15.0332C12.0349 15.0679 12.0275 15.1051 12.0275 15.1427H12.0342Z" fill="#D9D9D9"/>
<path d="M15.9868 6.70959C15.9868 7.18417 16.1135 7.56677 16.2734 7.56677C16.4267 7.56677 16.5587 7.18417 16.5587 6.70959C16.5587 6.24168 16.4267 5.85242 16.2734 5.85242C16.1135 5.85242 15.9868 6.24168 15.9868 6.70959Z" fill="#D9D9D9"/>
<path d="M16.2734 7.45213L16.2841 7.42946C16.3165 7.38433 16.3417 7.3344 16.3587 7.28149C16.404 7.14418 16.4387 6.93889 16.4387 6.70959C16.4387 6.4803 16.404 6.28167 16.3587 6.13903C16.3383 6.07842 16.3071 6.02197 16.2667 5.9724L16.2441 5.99639C16.2116 6.04152 16.1864 6.09145 16.1694 6.14436C16.1155 6.33005 16.0908 6.52298 16.0961 6.71626C16.0961 6.94422 16.1241 7.14418 16.1694 7.28682C16.1869 7.33787 16.2121 7.38597 16.2441 7.42946C16.2503 7.43835 16.2578 7.4459 16.2667 7.45213H16.2734ZM16.2667 7.56677C16.1134 7.56677 15.9814 7.18417 15.9814 6.70959C15.9814 6.24168 16.1134 5.85242 16.2667 5.85242C16.4267 5.85242 16.5533 6.24168 16.5533 6.70959C16.5533 7.18417 16.4267 7.56677 16.2667 7.56677Z" fill="#5B5B5B"/>
<path d="M2.00136 16.1825L2.03602 16.4851C2.04049 16.5291 2.05367 16.5718 2.07479 16.6106C2.09591 16.6495 2.12455 16.6837 2.15905 16.7114C2.19354 16.7391 2.23319 16.7596 2.27569 16.7718C2.3182 16.784 2.3627 16.7876 2.40662 16.7824L2.76655 16.7424C2.82321 16.9913 2.90357 17.2341 3.00651 17.4676L2.69323 17.6503C2.65523 17.6723 2.62197 17.7017 2.59535 17.7366C2.56873 17.7716 2.54929 17.8114 2.53814 17.8539C2.52699 17.8964 2.52435 17.9407 2.53038 17.9842C2.5364 18.0278 2.55097 18.0697 2.57325 18.1075L2.72656 18.3768C2.77292 18.4516 2.84669 18.5053 2.93212 18.5265C3.01755 18.5477 3.10788 18.5346 3.18381 18.4901L3.50375 18.3075C3.64639 18.5021 3.81303 18.6847 3.98899 18.85L3.77303 19.142C3.72139 19.2126 3.69958 19.3007 3.7123 19.3872C3.72502 19.4737 3.77125 19.5518 3.84102 19.6046L4.09297 19.7872C4.16358 19.8389 4.25165 19.8607 4.33819 19.8479C4.42473 19.8352 4.5028 19.789 4.55556 19.7192L4.77818 19.4273C4.99548 19.5473 5.22344 19.6566 5.46339 19.7366L5.37807 20.0898C5.3683 20.133 5.36722 20.1777 5.3749 20.2213C5.38259 20.2649 5.39888 20.3065 5.42283 20.3438C5.44679 20.381 5.47792 20.4131 5.51441 20.4381C5.5509 20.4632 5.59201 20.4807 5.63536 20.4897L5.93797 20.5591C6.0251 20.5777 6.11606 20.5611 6.19099 20.5129C6.26593 20.4647 6.31874 20.3888 6.3379 20.3018L6.41788 19.9472C6.68539 19.9738 6.95379 19.9761 7.22307 19.9538L7.30839 20.3071C7.32256 20.3719 7.35576 20.4311 7.40374 20.4769C7.45171 20.5227 7.51227 20.5532 7.57767 20.5644C7.62093 20.5716 7.66506 20.5716 7.70831 20.5644L8.00559 20.4964C8.09261 20.4773 8.16851 20.4244 8.21671 20.3495C8.26492 20.2746 8.28152 20.1836 8.26288 20.0965L8.18289 19.7539C8.42818 19.6739 8.66236 19.5708 8.88543 19.4446L9.09206 19.7192C9.14554 19.7893 9.2243 19.8356 9.3115 19.8483C9.3987 19.861 9.48741 19.8391 9.55864 19.7872L9.80527 19.6046C9.84108 19.5789 9.87145 19.5464 9.89462 19.5089C9.91779 19.4714 9.93329 19.4297 9.94023 19.3862C9.94718 19.3427 9.94542 19.2982 9.93507 19.2554C9.92471 19.2126 9.90597 19.1722 9.87992 19.1367L9.67996 18.874C9.86946 18.7004 10.0418 18.5089 10.1945 18.3021L10.4798 18.4741C10.5564 18.5202 10.6481 18.534 10.7348 18.5125C10.8215 18.491 10.8962 18.436 10.9424 18.3595L11.1024 18.0969C11.1249 18.0593 11.1398 18.0177 11.1462 17.9744C11.1526 17.9311 11.1504 17.8869 11.1398 17.8445C11.1291 17.802 11.1102 17.7621 11.0841 17.7269C11.058 17.6918 11.0253 17.6621 10.9877 17.6396L10.6851 17.4676C10.7873 17.2277 10.8673 16.9824 10.9251 16.7318L11.285 16.7718C11.3731 16.7816 11.4615 16.7563 11.5311 16.7014C11.6007 16.6465 11.6459 16.5664 11.6569 16.4785L11.6849 16.1719C11.6917 16.1067 11.6792 16.0409 11.6489 15.9828C11.6185 15.9247 11.5717 15.8769 11.5143 15.8453C11.4767 15.8257 11.4362 15.8122 11.3943 15.8053L11.0224 15.7653C11.0224 15.496 10.9939 15.2294 10.9371 14.9654L11.285 14.8521C11.3487 14.8313 11.4046 14.7919 11.4455 14.7388C11.4864 14.6858 11.5104 14.6217 11.5143 14.5548C11.5143 14.5148 11.5143 14.4682 11.497 14.4282L11.3996 14.1376C11.3865 14.0949 11.3647 14.0553 11.3358 14.0213C11.3068 13.9873 11.2712 13.9595 11.2312 13.9397C11.1912 13.9199 11.1475 13.9084 11.1029 13.906C11.0583 13.9036 11.0137 13.9102 10.9717 13.9256L10.6278 14.0403C10.5215 13.8199 10.3952 13.6097 10.2505 13.4124L10.5251 13.1658C10.5581 13.1363 10.5849 13.1005 10.6039 13.0606C10.6229 13.0207 10.6338 12.9774 10.6359 12.9332C10.638 12.889 10.6313 12.8449 10.6162 12.8033C10.601 12.7618 10.5778 12.7237 10.5478 12.6912L10.3425 12.4632C10.2817 12.3983 10.1977 12.3601 10.1088 12.3569C10.0199 12.3536 9.93333 12.3856 9.86792 12.4459L9.59464 12.6858C9.41165 12.5256 9.21443 12.3823 9.00541 12.2579L9.15472 11.926C9.17241 11.8858 9.18199 11.8426 9.18292 11.7987C9.18385 11.7548 9.1761 11.7112 9.16012 11.6703C9.14414 11.6294 9.12025 11.5921 9.08981 11.5605C9.05937 11.5289 9.02299 11.5036 8.98275 11.4861L8.70813 11.3608C8.62712 11.324 8.53487 11.3208 8.45148 11.3517C8.36808 11.3827 8.3003 11.4454 8.26288 11.5261L8.11491 11.858C7.86029 11.7764 7.59814 11.7206 7.33238 11.6914V11.3261C7.33168 11.2384 7.29644 11.1545 7.23431 11.0926C7.17217 11.0307 7.08814 10.9958 7.00044 10.9955H6.6925C6.60419 10.9955 6.5194 11.0301 6.45634 11.0919C6.39328 11.1537 6.35697 11.2378 6.35523 11.3261V11.6914C6.09127 11.721 5.83092 11.7768 5.57804 11.858L5.42873 11.5261C5.41112 11.4853 5.38553 11.4484 5.35347 11.4177C5.3214 11.3869 5.28352 11.3629 5.24203 11.347C5.20055 11.3311 5.15631 11.3236 5.11191 11.3251C5.0675 11.3265 5.02384 11.3368 4.98348 11.3554L4.6982 11.4861C4.61812 11.5227 4.55578 11.5895 4.52481 11.6719C4.49384 11.7544 4.49674 11.8457 4.53289 11.926L4.6862 12.2579C4.47673 12.3855 4.27829 12.5305 4.09297 12.6912L3.82369 12.4459C3.7576 12.3863 3.67063 12.3552 3.58173 12.3595C3.49284 12.3637 3.40922 12.4029 3.34911 12.4685L3.14382 12.6978C3.11434 12.7299 3.09152 12.7676 3.07669 12.8085C3.06185 12.8495 3.0553 12.893 3.05741 12.9365C3.05952 12.9801 3.07024 13.0227 3.08897 13.0621C3.10769 13.1014 3.13403 13.1367 3.16648 13.1658L3.43576 13.411V13.4177C3.29179 13.6186 3.16781 13.8279 3.06383 14.0456L2.71589 13.9309C2.63171 13.9052 2.54086 13.9129 2.46218 13.9524C2.3835 13.9918 2.32303 14.0601 2.2933 14.1429L2.18932 14.4349C2.17535 14.4765 2.16976 14.5205 2.17286 14.5644C2.17596 14.6082 2.1877 14.651 2.2074 14.6902C2.2271 14.7295 2.25437 14.7645 2.28765 14.7932C2.32092 14.8219 2.35954 14.8437 2.40128 14.8574L2.74922 14.9708C2.69323 15.2347 2.66923 15.508 2.6639 15.7773L2.29864 15.8173C2.21123 15.8273 2.13122 15.8712 2.07569 15.9394C2.02015 16.0077 1.99347 16.0949 2.00136 16.1825Z" fill="#5B5B5B"/>
<path d="M3.16646 13.1658L3.43574 13.411V13.4177L11.0117 17.6569L10.9824 17.6396L10.6851 17.4623C10.7873 17.2268 10.8673 16.9828 10.925 16.7304L11.285 16.7704C11.3727 16.7803 11.4607 16.7554 11.5303 16.701C11.5998 16.6467 11.6453 16.5673 11.6569 16.4798L11.6849 16.1719C11.6917 16.1067 11.6792 16.0409 11.6488 15.9828C11.6185 15.9247 11.5717 15.8769 11.5143 15.8453C11.4767 15.8257 11.4362 15.8122 11.3943 15.8053L11.0224 15.7653C11.0224 15.496 10.9939 15.2294 10.937 14.9654L11.285 14.8521C11.3486 14.8313 11.4046 14.7919 11.4455 14.7388C11.4864 14.6858 11.5103 14.6217 11.5143 14.5548C11.5143 14.5148 11.5143 14.4682 11.4969 14.4282L11.3996 14.1376C11.3864 14.0949 11.3647 14.0553 11.3357 14.0213C11.3068 13.9873 11.2712 13.9595 11.2312 13.9397C11.1911 13.9199 11.1475 13.9084 11.1029 13.906C11.0583 13.9036 11.0136 13.9102 10.9717 13.9256L10.6278 14.0403C10.5215 13.8199 10.3952 13.6097 10.2505 13.4124L10.5251 13.1658C10.5581 13.1363 10.5848 13.1005 10.6039 13.0606C10.6229 13.0207 10.6338 12.9774 10.6359 12.9332C10.638 12.889 10.6313 12.8449 10.6161 12.8033C10.601 12.7618 10.5778 12.7237 10.5478 12.6912L10.3425 12.4632C10.2816 12.3983 10.1976 12.3601 10.1088 12.3569C10.0199 12.3536 9.93331 12.3856 9.8679 12.4459L9.59462 12.6858C9.41163 12.5256 9.21441 12.3823 9.00539 12.2579L9.1547 11.926C9.17239 11.8858 9.18198 11.8426 9.1829 11.7987C9.18383 11.7548 9.17608 11.7112 9.16011 11.6703C9.14413 11.6294 9.12023 11.5921 9.08979 11.5605C9.05935 11.5289 9.02297 11.5036 8.98273 11.4861L8.70811 11.3608C8.6271 11.324 8.53485 11.3208 8.45146 11.3517C8.36807 11.3827 8.30028 11.4454 8.26286 11.5261L8.11489 11.858C7.86027 11.7764 7.59812 11.7206 7.33237 11.6914V11.3261C7.33167 11.2384 7.29643 11.1545 7.23429 11.0926C7.17215 11.0307 7.08812 10.9958 7.00043 10.9955H6.69248C6.60417 10.9955 6.51938 11.0301 6.45632 11.0919C6.39326 11.1537 6.35696 11.2378 6.35521 11.3261V11.6914C6.09126 11.721 5.83091 11.7768 5.57802 11.858L5.42871 11.5261C5.4111 11.4853 5.38551 11.4484 5.35345 11.4177C5.32139 11.3869 5.2835 11.3629 5.24202 11.347C5.20053 11.3311 5.15629 11.3236 5.11189 11.3251C5.06749 11.3265 5.02382 11.3368 4.98346 11.3554L4.69818 11.4861C4.6181 11.5227 4.55576 11.5895 4.52479 11.6719C4.49382 11.7544 4.49672 11.8457 4.53288 11.926L4.68618 12.2579C4.47671 12.3855 4.27827 12.5305 4.09296 12.6912L3.82367 12.4459C3.75758 12.3863 3.67061 12.3552 3.58172 12.3595C3.49282 12.3637 3.4092 12.4029 3.34909 12.4685L3.1438 12.6978C3.11432 12.7299 3.0915 12.7676 3.07667 12.8085C3.06184 12.8495 3.05528 12.893 3.05739 12.9365C3.0595 12.9801 3.07023 13.0227 3.08895 13.0621C3.10767 13.1014 3.13402 13.1367 3.16646 13.1658Z" fill="#777777"/>
<path d="M4.08631 15.7719C4.08538 16.4161 4.31092 17.04 4.72349 17.5347C5.13605 18.0294 5.70939 18.3633 6.34323 18.4781C6.97654 18.5967 7.63137 18.4926 8.19674 18.1836C8.7621 17.8745 9.20322 17.3795 9.44533 16.7824C9.59656 16.404 9.66159 15.9966 9.6357 15.5899C9.6098 15.1832 9.49363 14.7874 9.29563 14.4312C9.09762 14.0751 8.82276 13.7675 8.491 13.5308C8.15925 13.2941 7.77894 13.1344 7.37771 13.0631C6.77478 12.9515 6.15189 13.0409 5.60472 13.3176C5.05755 13.5943 4.61636 14.043 4.34893 14.5948C4.1769 14.9634 4.08728 15.3651 4.08631 15.7719Z" fill="#777777"/>
<path d="M4.65289 14.1029L9.44535 16.7824C9.69197 16.1617 9.70389 15.4723 9.47887 14.8434C9.25386 14.2145 8.80734 13.6891 8.22291 13.3657C7.63813 13.0409 6.95623 12.9367 6.30113 13.072C5.64602 13.2072 5.06119 13.573 4.65289 14.1029Z" fill="#5B5B5B"/>
<path d="M6.84581 17.8915C6.56816 17.8922 6.29309 17.8382 6.0363 17.7326C5.77952 17.627 5.54605 17.4719 5.34922 17.276C5.1524 17.0802 4.99607 16.8475 4.88918 16.5913C4.78228 16.335 4.7269 16.0602 4.7262 15.7826C4.72796 15.223 4.95149 14.6869 5.34781 14.2918C5.74412 13.8968 6.28089 13.6749 6.84048 13.6749C7.11842 13.6737 7.39387 13.7273 7.65111 13.8325C7.90834 13.9378 8.14231 14.0927 8.33965 14.2885C8.53699 14.4842 8.69382 14.7169 8.8012 14.9732C8.90857 15.2296 8.96437 15.5046 8.96542 15.7826C8.96472 16.0602 8.90934 16.335 8.80244 16.5913C8.69554 16.8475 8.53922 17.0802 8.34239 17.276C8.14557 17.4719 7.9121 17.627 7.65532 17.7326C7.39853 17.8382 7.12346 17.8922 6.84581 17.8915Z" fill="#FAB059"/>
<path d="M6.85781 16.2051C6.7988 16.208 6.73981 16.1989 6.68447 16.1782C6.62912 16.1575 6.57857 16.1257 6.53591 16.0849C6.49324 16.044 6.45936 15.9949 6.43634 15.9404C6.41331 15.886 6.40162 15.8275 6.40199 15.7684C6.40235 15.7093 6.41476 15.6509 6.43845 15.5968C6.46214 15.5427 6.49662 15.494 6.53978 15.4536C6.58295 15.4133 6.63388 15.3821 6.68948 15.3621C6.74508 15.3421 6.80417 15.3337 6.86314 15.3373C6.92215 15.334 6.9812 15.3428 7.03669 15.3632C7.09218 15.3835 7.14295 15.4149 7.18587 15.4555C7.2288 15.4961 7.263 15.5451 7.28637 15.5994C7.30974 15.6536 7.32179 15.7121 7.32179 15.7712C7.32179 15.8303 7.30974 15.8888 7.28637 15.9431C7.263 15.9974 7.2288 16.0463 7.18587 16.0869C7.14295 16.1275 7.09218 16.159 7.03669 16.1793C6.9812 16.1996 6.92215 16.2084 6.86314 16.2051H6.85781Z" fill="#5B5B5B"/>
<path d="M6.84582 17.0676C7.10148 17.0673 7.35142 16.992 7.56469 16.851C7.77795 16.71 7.94517 16.5096 8.0456 16.2745C8.11971 16.0981 8.15334 15.9074 8.14402 15.7163C8.13469 15.5252 8.08265 15.3387 7.99172 15.1704C7.90078 15.002 7.77328 14.8563 7.61857 14.7437C7.46387 14.6312 7.28591 14.5548 7.09777 14.5201C6.91528 14.4842 6.72722 14.4878 6.54623 14.5306C6.36525 14.5735 6.19554 14.6546 6.04852 14.7685C5.90151 14.8825 5.7806 15.0265 5.69393 15.1911C5.60726 15.3557 5.55684 15.5369 5.54606 15.7226C5.53689 15.8978 5.56388 16.0731 5.62534 16.2375C5.6868 16.4019 5.78143 16.552 5.90333 16.6782C6.02524 16.8045 6.17182 16.9044 6.33395 16.9716C6.49609 17.0388 6.67032 17.072 6.84582 17.069M6.84582 14.7161C6.99102 14.7172 7.13452 14.7475 7.26783 14.805C7.40115 14.8626 7.52157 14.9463 7.62198 15.0512C7.7224 15.1561 7.80077 15.28 7.85246 15.4157C7.90416 15.5514 7.92813 15.6961 7.92296 15.8412C7.911 16.0801 7.81905 16.3081 7.66189 16.4885C7.50473 16.6688 7.29149 16.7911 7.05645 16.8357C6.84748 16.8771 6.63093 16.8558 6.43404 16.7745C6.23716 16.6931 6.06874 16.5553 5.94998 16.3784C5.84132 16.2175 5.77881 16.0299 5.76926 15.836C5.75971 15.6421 5.80348 15.4493 5.89582 15.2785C5.98815 15.1077 6.12552 14.9655 6.29301 14.8673C6.46049 14.769 6.65169 14.7186 6.84582 14.7214V14.7161Z" fill="#5B5B5B"/>
<path d="M7.96027 14.3428L8.08558 14.4681C8.11285 14.4956 8.12816 14.5327 8.12816 14.5714C8.12816 14.6102 8.11285 14.6473 8.08558 14.6748C8.05817 14.7016 8.02132 14.7167 7.98294 14.7167C7.94455 14.7167 7.9077 14.7016 7.88029 14.6748L7.75498 14.5481C7.74119 14.5348 7.73022 14.5189 7.72273 14.5012C7.71524 14.4836 7.71138 14.4646 7.71138 14.4455C7.71138 14.4263 7.71524 14.4073 7.72273 14.3897C7.73022 14.3721 7.74119 14.3561 7.75498 14.3428C7.78239 14.316 7.81924 14.3009 7.85762 14.3009C7.89601 14.3009 7.93286 14.316 7.96027 14.3428ZM7.37238 15.0854L7.49236 15.212C7.51923 15.2394 7.53428 15.2763 7.53428 15.3146C7.53428 15.353 7.51923 15.3899 7.49236 15.4173C7.46489 15.4446 7.42775 15.4599 7.38904 15.4599C7.35034 15.4599 7.3132 15.4446 7.28573 15.4173L7.16042 15.2906C7.14663 15.2773 7.13566 15.2614 7.12817 15.2438C7.12068 15.2261 7.11682 15.2072 7.11682 15.188C7.11682 15.1688 7.12068 15.1499 7.12817 15.1322C7.13566 15.1146 7.14663 15.0987 7.16042 15.0854C7.18783 15.0585 7.22468 15.0434 7.26307 15.0434C7.30145 15.0434 7.3383 15.0585 7.36571 15.0854H7.37238Z" fill="#D9D9D9"/>
<path d="M15.1069 17.4849L15.1189 17.5596C15.1245 17.6216 15.1487 17.6804 15.1885 17.7282C15.2283 17.7761 15.2817 17.8107 15.3416 17.8275C15.3762 17.8395 15.4216 17.8395 15.4562 17.8342L15.6162 17.8222C15.6606 17.9999 15.7197 18.175 15.7935 18.3474L15.6562 18.4274C15.5851 18.4684 15.5332 18.5359 15.5117 18.6151C15.4903 18.6943 15.501 18.7787 15.5415 18.85L15.5815 18.9193C15.6021 18.9551 15.6295 18.9865 15.6623 19.0117C15.695 19.0368 15.7324 19.0553 15.7723 19.0659C15.8122 19.0766 15.8538 19.0792 15.8947 19.0737C15.9357 19.0683 15.9751 19.0547 16.0108 19.034L16.1468 18.9473C16.2596 19.086 16.3778 19.2157 16.5014 19.3366L16.404 19.4672C16.3666 19.5162 16.3447 19.5754 16.3414 19.637C16.3381 19.6986 16.3534 19.7598 16.3854 19.8125C16.4053 19.8481 16.4331 19.8787 16.4667 19.9018L16.5307 19.9471C16.5975 19.9944 16.6802 20.0138 16.7611 20.0011C16.842 19.9884 16.9148 19.9446 16.9639 19.8792L17.0666 19.7418C17.2266 19.8281 17.3923 19.9005 17.5638 19.9591L17.5238 20.1311C17.5144 20.1709 17.513 20.2121 17.5198 20.2524C17.5265 20.2927 17.5413 20.3313 17.5631 20.3658C17.585 20.4003 17.6135 20.4301 17.6471 20.4535C17.6806 20.4768 17.7185 20.4932 17.7585 20.5017L17.8331 20.519C17.9133 20.5359 17.9968 20.5208 18.066 20.477C18.1352 20.4331 18.1846 20.3641 18.2037 20.2844L18.2437 20.1018C18.4366 20.1196 18.629 20.1196 18.8209 20.1018L18.8663 20.2844C18.8747 20.3245 18.8912 20.3625 18.9146 20.3962C18.938 20.4298 18.968 20.4584 19.0027 20.4803C19.0373 20.5022 19.076 20.5169 19.1165 20.5235C19.157 20.5302 19.1983 20.5287 19.2382 20.519L19.3128 20.5017C19.3903 20.4815 19.4571 20.4324 19.4995 20.3644C19.5419 20.2965 19.5567 20.2149 19.5408 20.1364L19.5008 19.9471C19.6728 19.8912 19.8434 19.8165 19.9981 19.7245L20.1127 19.8738C20.1625 19.937 20.2346 19.9787 20.3142 19.9903C20.3938 20.002 20.4748 19.9827 20.5406 19.9365L20.6033 19.8965C20.6369 19.8729 20.6654 19.8428 20.6871 19.808C20.7089 19.7732 20.7234 19.7344 20.7299 19.6939C20.7363 19.6533 20.7346 19.6119 20.7248 19.5721C20.7149 19.5322 20.6972 19.4948 20.6726 19.4619L20.558 19.3139C20.6885 19.1905 20.8089 19.0568 20.9179 18.914L21.0832 19.0113C21.1547 19.0534 21.2399 19.0655 21.3203 19.045C21.4007 19.0245 21.4698 18.9731 21.5124 18.902L21.5458 18.8393C21.5669 18.8049 21.581 18.7666 21.5873 18.7267C21.5936 18.6867 21.5919 18.646 21.5823 18.6067C21.5728 18.5674 21.5556 18.5304 21.5317 18.4978C21.5078 18.4652 21.4777 18.4377 21.4431 18.4168L21.2658 18.3141C21.3364 18.1484 21.39 17.976 21.4258 17.7995L21.6431 17.8275C21.7246 17.8358 21.8061 17.8118 21.8701 17.7608C21.9342 17.7097 21.9757 17.6355 21.9857 17.5542L21.9977 17.4796C22.0027 17.439 21.9995 17.3978 21.9883 17.3584C21.9771 17.319 21.9582 17.2823 21.9326 17.2504C21.907 17.2185 21.8753 17.192 21.8393 17.1725C21.8033 17.153 21.7638 17.141 21.7231 17.137L21.4951 17.1143C21.496 16.9259 21.4769 16.7411 21.4378 16.5598L21.6498 16.4904C21.7268 16.4629 21.79 16.4064 21.8261 16.333C21.8622 16.2596 21.8683 16.175 21.8431 16.0972L21.8204 16.0279C21.8076 15.9889 21.7872 15.953 21.7603 15.9221C21.7335 15.8912 21.7007 15.8659 21.6639 15.8479C21.6271 15.8299 21.5871 15.8194 21.5462 15.8171C21.5053 15.8149 21.4644 15.8208 21.4258 15.8346L21.2205 15.9025C21.1493 15.7462 21.0631 15.5971 20.9632 15.4573L21.1232 15.3147C21.153 15.2873 21.177 15.2544 21.194 15.2177C21.2111 15.181 21.2206 15.1414 21.2222 15.101C21.2239 15.0606 21.2175 15.0203 21.2034 14.9824C21.1894 14.9444 21.168 14.9097 21.1405 14.8801L21.0885 14.8227C21.0328 14.7621 20.9554 14.7258 20.8732 14.7216C20.7909 14.7173 20.7103 14.7455 20.6486 14.8001L20.4953 14.9427C20.3682 14.827 20.2303 14.7239 20.0834 14.6348L20.17 14.4508C20.1956 14.3945 20.2036 14.3318 20.1929 14.2709C20.1822 14.21 20.1533 14.1537 20.11 14.1095C20.0825 14.079 20.0483 14.0553 20.0101 14.0402L19.9407 14.0122C19.9038 13.9949 19.8637 13.9851 19.8229 13.9834C19.7822 13.9818 19.7414 13.9883 19.7032 14.0025C19.665 14.0168 19.6299 14.0386 19.6002 14.0666C19.5705 14.0946 19.5467 14.1282 19.5301 14.1655L19.4502 14.3428C19.2715 14.2835 19.0876 14.2416 18.9009 14.2175V14.0282C18.9011 13.9877 18.8933 13.9476 18.8778 13.9102C18.8624 13.8727 18.8398 13.8387 18.8111 13.8101C18.7825 13.7815 18.7485 13.7588 18.711 13.7434C18.6736 13.7279 18.6335 13.7201 18.593 13.7203H18.513C18.4523 13.7212 18.3931 13.7394 18.3424 13.7726C18.2916 13.8059 18.2514 13.853 18.2264 13.9082C18.2096 13.9459 18.2019 13.987 18.2037 14.0282V14.2109C18.014 14.2323 17.8267 14.2707 17.6438 14.3255L17.5692 14.1655C17.5443 14.1091 17.503 14.0616 17.4507 14.029C17.3984 13.9964 17.3375 13.9803 17.2759 13.9829C17.2352 13.9831 17.195 13.9927 17.1586 14.0109L17.0893 14.0402C17.0152 14.0737 16.9575 14.1351 16.9288 14.2111C16.9 14.2871 16.9026 14.3714 16.9359 14.4455L17.0039 14.6055C16.8533 14.6971 16.7102 14.8005 16.576 14.9147L16.4494 14.8001C16.3877 14.7455 16.307 14.7173 16.2248 14.7216C16.1425 14.7258 16.0652 14.7621 16.0094 14.8227L15.9588 14.8801C15.9316 14.91 15.9106 14.9451 15.897 14.9832C15.8835 15.0213 15.8775 15.0617 15.8797 15.1021C15.8818 15.1425 15.8918 15.1821 15.9093 15.2185C15.9268 15.255 15.9513 15.2877 15.9815 15.3147L16.1014 15.428C15.9978 15.5728 15.906 15.7257 15.8268 15.8852L15.6735 15.8346C15.5962 15.8105 15.5126 15.8172 15.4401 15.8532C15.3676 15.8892 15.3118 15.9517 15.2842 16.0279L15.2563 16.1025C15.2436 16.1411 15.2387 16.1819 15.2419 16.2224C15.2451 16.2629 15.2563 16.3023 15.2749 16.3385C15.2936 16.3745 15.3192 16.4066 15.3503 16.4326C15.3814 16.4587 15.4174 16.4784 15.4562 16.4904L15.6042 16.5478C15.5651 16.7362 15.546 16.9308 15.5469 17.1317L15.3869 17.1477C15.3043 17.1564 15.2285 17.1975 15.176 17.2619C15.1236 17.3263 15.0987 17.4089 15.1069 17.4916V17.4849Z" fill="#5B5B5B"/>
<path d="M15.9815 15.3147L16.1068 15.428L21.5178 18.4848C21.4975 18.4575 21.4721 18.4345 21.4432 18.4168L21.2659 18.3141C21.3364 18.1484 21.39 17.976 21.4258 17.7995L21.6431 17.8275C21.7246 17.8358 21.8061 17.8119 21.8702 17.7608C21.9342 17.7097 21.9757 17.6356 21.9857 17.5543L21.9977 17.4796C22.0027 17.439 21.9995 17.3978 21.9884 17.3584C21.9772 17.3191 21.9582 17.2823 21.9326 17.2504C21.9071 17.2185 21.8753 17.192 21.8393 17.1725C21.8034 17.153 21.7638 17.141 21.7231 17.137L21.4951 17.1143C21.496 16.9259 21.4769 16.7411 21.4378 16.5598L21.6498 16.4904C21.7268 16.4629 21.7901 16.4064 21.8262 16.333C21.8622 16.2596 21.8683 16.175 21.8431 16.0972L21.8204 16.0279C21.8077 15.9889 21.7873 15.953 21.7604 15.9221C21.7335 15.8912 21.7007 15.866 21.6639 15.8479C21.6271 15.8299 21.5871 15.8195 21.5462 15.8172C21.5053 15.8149 21.4644 15.8208 21.4258 15.8346L21.2205 15.9026C21.1493 15.7462 21.0632 15.5971 20.9632 15.4573L21.1232 15.3147C21.153 15.2873 21.1771 15.2544 21.1941 15.2177C21.2111 15.181 21.2207 15.1414 21.2223 15.101C21.2239 15.0606 21.2175 15.0203 21.2035 14.9824C21.1894 14.9445 21.1681 14.9097 21.1405 14.8801L21.0886 14.8228C21.0328 14.7621 20.9555 14.7258 20.8732 14.7216C20.791 14.7173 20.7103 14.7455 20.6486 14.8001L20.4953 14.9427C20.3683 14.827 20.2303 14.7239 20.0834 14.6348L20.1701 14.4508C20.1956 14.3945 20.2036 14.3318 20.1929 14.2709C20.1822 14.21 20.1533 14.1537 20.1101 14.1095C20.0825 14.079 20.0483 14.0553 20.0101 14.0402L19.9408 14.0122C19.9038 13.9949 19.8638 13.9851 19.823 13.9834C19.7822 13.9818 19.7415 13.9883 19.7032 14.0025C19.665 14.0168 19.63 14.0386 19.6003 14.0666C19.5705 14.0946 19.5467 14.1282 19.5302 14.1655L19.4502 14.3428C19.2716 14.2835 19.0876 14.2416 18.901 14.2175V14.0282C18.9011 13.9877 18.8933 13.9476 18.8779 13.9102C18.8625 13.8727 18.8398 13.8387 18.8112 13.8101C18.7825 13.7815 18.7485 13.7588 18.7111 13.7434C18.6736 13.728 18.6335 13.7201 18.593 13.7203H18.513C18.4724 13.7199 18.4322 13.7276 18.3946 13.743C18.357 13.7583 18.3228 13.781 18.294 13.8096C18.2652 13.8383 18.2425 13.8723 18.227 13.9099C18.2115 13.9474 18.2036 13.9876 18.2037 14.0282V14.2109C18.0141 14.2323 17.8267 14.2707 17.6438 14.3255L17.5692 14.1655C17.5443 14.1091 17.503 14.0616 17.4507 14.029C17.3984 13.9964 17.3375 13.9803 17.2759 13.9829C17.2352 13.9832 17.1951 13.9927 17.1586 14.0109L17.0893 14.0402C17.0153 14.0737 16.9575 14.1352 16.9288 14.2111C16.9 14.2871 16.9026 14.3714 16.936 14.4455L17.004 14.6055C16.8534 14.6971 16.7103 14.8005 16.576 14.9147L16.4494 14.8001C16.3877 14.7455 16.3071 14.7173 16.2248 14.7216C16.1426 14.7258 16.0652 14.7621 16.0095 14.8228L15.9588 14.8801C15.9316 14.91 15.9107 14.9451 15.8971 14.9832C15.8835 15.0213 15.8776 15.0617 15.8797 15.1021C15.8818 15.1425 15.8919 15.1821 15.9093 15.2185C15.9268 15.255 15.9513 15.2877 15.9815 15.3147Z" fill="#777777"/>
<path d="M16.4387 17.1317C16.4376 17.634 16.6161 18.1202 16.942 18.5025C17.2678 18.8848 17.7196 19.1381 18.2157 19.2166C18.7113 19.2958 19.219 19.1976 19.6493 18.9394C20.0797 18.6811 20.4052 18.2794 20.5686 17.8049C20.7296 17.3314 20.7156 16.8158 20.5293 16.3517C20.3429 15.8876 19.9965 15.5055 19.5528 15.2747C19.1077 15.0401 18.5939 14.9704 18.1024 15.078C17.6108 15.1856 17.1731 15.4635 16.8666 15.8626C16.5891 16.227 16.4388 16.6723 16.4387 17.1304" fill="#5B5B5B"/>
<path d="M16.4387 17.1316C16.4395 17.6217 16.6111 18.0962 16.924 18.4734C17.2369 18.8505 17.6716 19.1068 18.1531 19.1979C18.6343 19.2903 19.1326 19.2141 19.5642 18.9822C19.9959 18.7504 20.3346 18.377 20.5233 17.9248L16.8666 15.8625C16.5891 16.2269 16.4388 16.6723 16.4387 17.1303" fill="#777777"/>
<path d="M18.553 18.7714C18.1151 18.7724 17.6946 18.5997 17.3839 18.291C17.0732 17.9823 16.8978 17.563 16.896 17.125C16.8981 16.6873 17.0738 16.2683 17.3844 15.9599C17.695 15.6515 18.1153 15.4789 18.553 15.48C19.4662 15.48 20.2087 16.2225 20.2087 17.125C20.2066 17.5625 20.0311 17.9813 19.7208 18.2897C19.4104 18.598 18.9905 18.7708 18.553 18.7701" fill="#FAB059"/>
<path d="M18.5583 17.5649C18.4723 17.5649 18.3882 17.5394 18.3167 17.4915C18.2452 17.4437 18.1895 17.3757 18.1567 17.2962C18.1238 17.2167 18.1153 17.1292 18.1323 17.0449C18.1492 16.9605 18.1908 16.8831 18.2517 16.8224C18.3128 16.7613 18.3906 16.7196 18.4753 16.7027C18.56 16.6858 18.6479 16.6943 18.7277 16.7273C18.8076 16.7602 18.8759 16.8161 18.9241 16.8878C18.9722 16.9595 18.998 17.0439 18.9982 17.1303C18.9982 17.3703 18.8036 17.5649 18.5583 17.5649Z" fill="#5B5B5B"/>
<path d="M19.1302 16.3878L19.2555 16.5144C19.2824 16.5419 19.2974 16.5787 19.2974 16.6171C19.2974 16.6555 19.2824 16.6923 19.2555 16.7197C19.2281 16.7466 19.1913 16.7617 19.1529 16.7617C19.1145 16.7617 19.0776 16.7466 19.0502 16.7197L18.9236 16.5944C18.903 16.5739 18.889 16.5478 18.8833 16.5193C18.8776 16.4908 18.8805 16.4613 18.8916 16.4345C18.8988 16.4168 18.9097 16.4009 18.9236 16.3878C18.951 16.3609 18.9878 16.3459 19.0262 16.3459C19.0646 16.3459 19.1028 16.3609 19.1302 16.3878Z" fill="#D9D9D9"/>
<path d="M12.3541 11.0528C17.1239 10.4795 19.4955 11.8686 20.238 12.5258L20.318 12.4405C19.5408 11.7553 17.1359 10.3662 12.3421 10.9381L12.3541 11.0528Z" fill="#D9D9D9"/>
<path d="M15.6962 9.28113C15.6962 9.28113 15.1243 8.70923 14.5537 8.42395V13.2804H15.6962V9.28113Z" fill="#5B5B5B"/>
<path d="M15.6962 9.28113C15.6962 9.28113 15.1989 8.78388 14.667 8.48127L14.5537 8.42395V13.2804H15.6962V9.28113ZM15.5815 13.1658H14.667V8.61858C15.0012 8.81943 15.306 9.05717 15.5815 9.33178V13.1658Z" fill="#D9D9D9"/>
<path d="M15.9868 11.566C15.9861 11.4149 15.9257 11.2702 15.8189 11.1633C15.712 11.0565 15.5673 10.9961 15.4162 10.9954H14.8443C14.7689 10.9949 14.6942 11.0093 14.6243 11.0377C14.5545 11.0661 14.491 11.108 14.4373 11.161C14.3837 11.214 14.3411 11.277 14.3119 11.3465C14.2827 11.416 14.2674 11.4906 14.2671 11.566V12.9951C14.2678 13.1464 14.3283 13.2913 14.4355 13.3982C14.5426 13.5051 14.6876 13.5653 14.839 13.5656H15.4109C15.562 13.5649 15.7067 13.5046 15.8136 13.3977C15.9204 13.2909 15.9807 13.1462 15.9814 12.9951V11.566H15.9868Z" fill="#5B5B5B"/>
<path d="M15.8668 11.566C15.8668 11.445 15.8188 11.3289 15.7333 11.2432C15.6479 11.1575 15.5319 11.1091 15.4109 11.1088H14.8377C14.7166 11.1091 14.6007 11.1575 14.5152 11.2432C14.4297 11.3289 14.3817 11.445 14.3817 11.566V12.9951C14.3817 13.2457 14.587 13.451 14.839 13.451H15.4109C15.5317 13.4507 15.6474 13.4025 15.7329 13.3171C15.8183 13.2317 15.8664 13.1159 15.8668 12.9951V11.566ZM15.4109 10.9955C15.562 10.9962 15.7067 11.0565 15.8136 11.1634C15.9204 11.2702 15.9807 11.4149 15.9814 11.566V12.9951C15.9807 13.1462 15.9204 13.2909 15.8136 13.3978C15.7067 13.5046 15.562 13.565 15.4109 13.5657H14.8377C14.6865 13.565 14.5418 13.5046 14.435 13.3978C14.3281 13.2909 14.2678 13.1462 14.2671 12.9951V11.566C14.2678 11.4147 14.3283 11.2698 14.4355 11.1629C14.5426 11.056 14.6876 10.9958 14.839 10.9955H15.4109Z" fill="#D9D9D9"/>
</svg>
